ffmpeg started on 2025-06-07 at 16:05:57
Report written to "D:\Convert\FFMetrics\reports\psnr_report-6.txt"
Log level: 32
Command line:
ffmpeg -hide_banner -nostdin -i "G:\\\xc0\xed\xe8\xec\xe5\\\xce\xed\xe3\xee\xe8\xed\xe3\xe8\\!_36_\xce\xf1\xe5\xed\xfc_2024\\DreamCast\\\xd6\xe5\xeb\xe8\xf2\xe5\xeb\xfc, \xea\xee\xf2\xee\xf0\xee\xe3\xee \xe8\xf1\xea\xeb\xfe\xf7\xe8\xeb\xe8 \xe8\xe7 \xe3\xf0\xf3\xef\xef\xfb, \xee\xea\xe0\xe7\xe0\xeb\xf1\xff \xf1\xe8\xeb\xfc\xed\xe5\xe9\xf8\xe8\xec!\\[DC] sonochiyushi - 06_Telegram_HEVC.mkv" -i "G:\\\xc0\xed\xe8\xec\xe5\\\xce\xed\xe3\xee\xe8\xed\xe3\xe8\\!_36_\xce\xf1\xe5\xed\xfc_2024\\DreamCast\\\xd6\xe5\xeb\xe8\xf2\xe5\xeb\xfc, \xea\xee\xf2\xee\xf0\xee\xe3\xee \xe8\xf1\xea\xeb\xfe\xf7\xe8\xeb\xe8 \xe8\xe7 \xe3\xf0\xf3\xef\xef\xfb, \xee\xea\xe0\xe7\xe0\xeb\xf1\xff \xf1\xe8\xeb\xfc\xed\xe5\xe9\xf8\xe8\xec!\\[DC] sonochiyushi - 06_Telegram.mp4" -lavfi "[0:v]settb=AVTB,setpts=PTS-STARTPTS,format=pix_fmts=yuv420p10,fps=24000/1001,scale=1920:1080:flags=bicubic[main];[1:v]settb=AVTB,setpts=PTS-STARTPTS,format=pix_fmts=yuv420p,fps=24000/1001,scale=1920:1080:flags=bicubic[ref];[main][ref]psnr=eof_action=endall:stats_file='D\\:/Convert/FFMetrics/logs/psnr_logfile-6.txt'" -f null -
Input #0, matroska,webm, from 'G:\Аниме\Онгоинги\!_36_Осень_2024\DreamCast\Целитель, которого исключили из группы, оказался сильнейшим!\[DC] sonochiyushi - 06_Telegram_HEVC.mkv':
  Metadata:
    COMPATIBLE_BRANDS: isomiso2avc1mp41
    MAJOR_BRAND     : isom
    MINOR_VERSION   : 512
    ENCODER         : Lavf61.7.100
  Duration: 00:23:30.69, start: -0.021000, bitrate: 1087 kb/s
  Stream #0:0: Video: hevc (Main 10), yuv420p10le(tv, bt709, progressive), 1920x1080 [SAR 1:1 DAR 16:9], 23.98 fps, 23.98 tbr, 1k tbn (default)
      Metadata:
        HANDLER_NAME    : VideoHandler
        VENDOR_ID       : [0][0][0][0]
        ENCODER         : Lavc61.19.100 libx265
        BPS             : 889860
        DURATION        : 00:23:30.533708333
        NUMBER_OF_FRAMES: 33819
        NUMBER_OF_BYTES : 156897267
        _STATISTICS_WRITING_APP: mkvpropedit v66.0.0 ('Josie') 64-bit
        _STATISTICS_WRITING_DATE_UTC: 2025-06-05 08:16:48
        _STATISTICS_TAGS: BPS DURATION NUMBER_OF_FRAMES NUMBER_OF_BYTES
  Stream #0:1: Audio: aac (LC), 48000 Hz, stereo, fltp (default)
      Metadata:
        HANDLER_NAME    : SoundHandler
        VENDOR_ID       : [0][0][0][0]
        ENCODER         : Lavc61.19.100 aac
        BPS             : 193574
        DURATION        : 00:23:30.688000000
        NUMBER_OF_FRAMES: 66127
        NUMBER_OF_BYTES : 34134187
        _STATISTICS_WRITING_APP: mkvpropedit v66.0.0 ('Josie') 64-bit
        _STATISTICS_WRITING_DATE_UTC: 2025-06-05 08:16:48
        _STATISTICS_TAGS: BPS DURATION NUMBER_OF_FRAMES NUMBER_OF_BYTES
Input #1, mov,mp4,m4a,3gp,3g2,mj2, from 'G:\Аниме\Онгоинги\!_36_Осень_2024\DreamCast\Целитель, которого исключили из группы, оказался сильнейшим!\[DC] sonochiyushi - 06_Telegram.mp4':
  Metadata:
    major_brand     : isom
    minor_version   : 512
    compatible_brands: isomiso2avc1mp41
    encoder         : Lavf61.1.100
  Duration: 00:23:30.65, start: 0.000000, bitrate: 3587 kb/s
  Stream #1:0[0x1](und): Video: h264 (High) (avc1 / 0x31637661), yuv420p(tv, bt709, progressive), 1920x1080 [SAR 1:1 DAR 16:9], 3439 kb/s, 23.98 fps, 23.98 tbr, 24k tbn (default)
      Metadata:
        handler_name    : VideoHandler
        vendor_id       : [0][0][0][0]
        encoder         : Lavc61.3.100 h264_qsv
  Stream #1:1[0x2](und): Audio: aac (HE-AACv2) (mp4a / 0x6134706D), 48000 Hz, stereo, fltp, 144 kb/s (default)
      Metadata:
        handler_name    : SoundHandler
        vendor_id       : [0][0][0][0]
Stream mapping:
  Stream #0:0 (hevc) -> settb:default
  Stream #1:0 (h264) -> settb:default
  psnr:default -> Stream #0:0 (wrapped_avframe)
  Stream #0:1 -> #0:1 (aac (native) -> pcm_s16le (native))
Output #0, null, to 'pipe:':
  Metadata:
    COMPATIBLE_BRANDS: isomiso2avc1mp41
    MAJOR_BRAND     : isom
    MINOR_VERSION   : 512
    encoder         : Lavf61.7.100
  Stream #0:0: Video: wrapped_avframe, yuv420p10le(tv, bt709, progressive), 1920x1080 [SAR 1:1 DAR 16:9], q=2-31, 200 kb/s, 23.98 fps, 23.98 tbn
      Metadata:
        encoder         : Lavc61.19.100 wrapped_avframe
  Stream #0:1: Audio: pcm_s16le, 48000 Hz, stereo, s16, 1536 kb/s (default)
      Metadata:
        HANDLER_NAME    : SoundHandler
        VENDOR_ID       : [0][0][0][0]
        _STATISTICS_TAGS: BPS DURATION NUMBER_OF_FRAMES NUMBER_OF_BYTES
        BPS             : 193574
        DURATION        : 00:23:30.688000000
        NUMBER_OF_FRAMES: 66127
        NUMBER_OF_BYTES : 34134187
        _STATISTICS_WRITING_APP: mkvpropedit v66.0.0 ('Josie') 64-bit
        _STATISTICS_WRITING_DATE_UTC: 2025-06-05 08:16:48
        encoder         : Lavc61.19.100 pcm_s16le
frame=  163 fps=0.0 q=-0.0 size=N/A time=00:00:06.79 bitrate=N/A speed=13.3x    frame=  412 fps=400 q=-0.0 size=N/A time=00:00:17.18 bitrate=N/A speed=16.7x    frame=  665 fps=432 q=-0.0 size=N/A time=00:00:27.73 bitrate=N/A speed=  18x    frame=  958 fps=464 q=-0.0 size=N/A time=00:00:39.95 bitrate=N/A speed=19.4x    frame= 1200 fps=466 q=-0.0 size=N/A time=00:00:50.05 bitrate=N/A speed=19.4x    frame= 1444 fps=468 q=-0.0 size=N/A time=00:01:00.22 bitrate=N/A speed=19.5x    frame= 1726 fps=479 q=-0.0 size=N/A time=00:01:11.98 bitrate=N/A speed=  20x    frame= 2006 fps=488 q=-0.0 size=N/A time=00:01:23.66 bitrate=N/A speed=20.3x    frame= 2292 fps=494 q=-0.0 size=N/A time=00:01:35.59 bitrate=N/A speed=20.6x    frame= 2574 fps=499 q=-0.0 size=N/A time=00:01:47.35 bitrate=N/A speed=20.8x    frame= 2835 fps=500 q=-0.0 size=N/A time=00:01:58.24 bitrate=N/A speed=20.9x    frame= 3104 fps=502 q=-0.0 size=N/A time=00:02:09.46 bitrate=N/A speed=20.9x    frame= 3328 fps=497 q=-0.0 size=N/A time=00:02:18.80 bitrate=N/A speed=20.7x    frame= 3535 fps=490 q=-0.0 size=N/A time=00:02:27.43 bitrate=N/A speed=20.4x    frame= 3723 fps=482 q=-0.0 size=N/A time=00:02:35.28 bitrate=N/A speed=20.1x    frame= 3932 fps=477 q=-0.0 size=N/A time=00:02:43.99 bitrate=N/A speed=19.9x    frame= 4164 fps=475 q=-0.0 size=N/A time=00:02:53.67 bitrate=N/A speed=19.8x    frame= 4381 fps=472 q=-0.0 size=N/A time=00:03:02.72 bitrate=N/A speed=19.7x    frame= 4564 fps=466 q=-0.0 size=N/A time=00:03:10.35 bitrate=N/A speed=19.4x    frame= 4782 fps=464 q=-0.0 size=N/A time=00:03:19.44 bitrate=N/A speed=19.3x    frame= 4969 fps=459 q=-0.0 size=N/A time=00:03:27.24 bitrate=N/A speed=19.1x    frame= 5186 fps=457 q=-0.0 size=N/A time=00:03:36.29 bitrate=N/A speed=19.1x    frame= 5363 fps=452 q=-0.0 size=N/A time=00:03:43.68 bitrate=N/A speed=18.9x    frame= 5561 fps=449 q=-0.0 size=N/A time=00:03:51.94 bitrate=N/A speed=18.7x    frame= 5804 fps=450 q=-0.0 size=N/A time=00:04:02.07 bitrate=N/A speed=18.8x    frame= 6051 fps=451 q=-0.0 size=N/A time=00:04:12.37 bitrate=N/A speed=18.8x    frame= 6299 fps=452 q=-0.0 size=N/A time=00:04:22.72 bitrate=N/A speed=18.9x    frame= 6581 fps=456 q=-0.0 size=N/A time=00:04:34.48 bitrate=N/A speed=  19x    frame= 6845 fps=457 q=-0.0 size=N/A time=00:04:45.49 bitrate=N/A speed=19.1x    frame= 7120 fps=460 q=-0.0 size=N/A time=00:04:56.96 bitrate=N/A speed=19.2x    frame= 7387 fps=462 q=-0.0 size=N/A time=00:05:08.09 bitrate=N/A speed=19.3x    frame= 7646 fps=463 q=-0.0 size=N/A time=00:05:18.90 bitrate=N/A speed=19.3x    frame= 7922 fps=465 q=-0.0 size=N/A time=00:05:30.41 bitrate=N/A speed=19.4x    frame= 8199 fps=467 q=-0.0 size=N/A time=00:05:41.96 bitrate=N/A speed=19.5x    frame= 8453 fps=468 q=-0.0 size=N/A time=00:05:52.56 bitrate=N/A speed=19.5x    frame= 8707 fps=469 q=-0.0 size=N/A time=00:06:03.15 bitrate=N/A speed=19.5x    frame= 8923 fps=467 q=-0.0 size=N/A time=00:06:12.16 bitrate=N/A speed=19.5x    frame= 9169 fps=467 q=-0.0 size=N/A time=00:06:22.42 bitrate=N/A speed=19.5x    frame= 9436 fps=469 q=-0.0 size=N/A time=00:06:33.55 bitrate=N/A speed=19.5x    frame= 9703 fps=470 q=-0.0 size=N/A time=00:06:44.69 bitrate=N/A speed=19.6x    frame= 9967 fps=471 q=-0.0 size=N/A time=00:06:55.70 bitrate=N/A speed=19.6x    frame=10227 fps=472 q=-0.0 size=N/A time=00:07:06.55 bitrate=N/A speed=19.7x    frame=10453 fps=471 q=-0.0 size=N/A time=00:07:15.97 bitrate=N/A speed=19.6x    frame=10728 fps=472 q=-0.0 size=N/A time=00:07:27.44 bitrate=N/A speed=19.7x    frame=10985 fps=473 q=-0.0 size=N/A time=00:07:38.16 bitrate=N/A speed=19.7x    frame=11261 fps=474 q=-0.0 size=N/A time=00:07:49.67 bitrate=N/A speed=19.8x    frame=11521 fps=475 q=-0.0 size=N/A time=00:08:00.52 bitrate=N/A speed=19.8x    frame=11732 fps=473 q=-0.0 size=N/A time=00:08:09.32 bitrate=N/A speed=19.7x    frame=11963 fps=473 q=-0.0 size=N/A time=00:08:18.95 bitrate=N/A speed=19.7x    frame=12211 fps=473 q=-0.0 size=N/A time=00:08:29.30 bitrate=N/A speed=19.7x    frame=12470 fps=474 q=-0.0 size=N/A time=00:08:40.14 bitrate=N/A speed=19.8x    frame=12736 fps=475 q=-0.0 size=N/A time=00:08:51.19 bitrate=N/A speed=19.8x    frame=12994 fps=475 q=-0.0 size=N/A time=00:09:01.95 bitrate=N/A speed=19.8x    frame=13242 fps=475 q=-0.0 size=N/A time=00:09:12.30 bitrate=N/A speed=19.8x    frame=13513 fps=476 q=-0.0 size=N/A time=00:09:23.60 bitrate=N/A speed=19.9x    frame=13789 fps=477 q=-0.0 size=N/A time=00:09:35.11 bitrate=N/A speed=19.9x    frame=14069 fps=478 q=-0.0 size=N/A time=00:09:46.79 bitrate=N/A speed=19.9x    frame=14298 fps=478 q=-0.0 size=N/A time=00:09:56.34 bitrate=N/A speed=19.9x    frame=14558 fps=478 q=-0.0 size=N/A time=00:10:07.18 bitrate=N/A speed=19.9x    frame=14802 fps=478 q=-0.0 size=N/A time=00:10:17.36 bitrate=N/A speed=19.9x    frame=15079 fps=479 q=-0.0 size=N/A time=00:10:28.91 bitrate=N/A speed=  20x    frame=15342 fps=479 q=-0.0 size=N/A time=00:10:39.88 bitrate=N/A speed=  20x    frame=15614 fps=480 q=-0.0 size=N/A time=00:10:51.23 bitrate=N/A speed=  20x    frame=15836 fps=479 q=-0.0 size=N/A time=00:11:00.49 bitrate=N/A speed=  20x    frame=16108 fps=480 q=-0.0 size=N/A time=00:11:11.83 bitrate=N/A speed=  20x    frame=16379 fps=481 q=-0.0 size=N/A time=00:11:23.14 bitrate=N/A speed=20.1x    frame=16647 fps=481 q=-0.0 size=N/A time=00:11:34.31 bitrate=N/A speed=20.1x    frame=16905 fps=482 q=-0.0 size=N/A time=00:11:45.07 bitrate=N/A speed=20.1x    frame=17126 fps=481 q=-0.0 size=N/A time=00:11:54.29 bitrate=N/A speed=20.1x    frame=17395 fps=481 q=-0.0 size=N/A time=00:12:05.51 bitrate=N/A speed=20.1x    frame=17639 fps=481 q=-0.0 size=N/A time=00:12:15.69 bitrate=N/A speed=20.1x    frame=17872 fps=481 q=-0.0 size=N/A time=00:12:25.41 bitrate=N/A speed=20.1x    frame=18098 fps=480 q=-0.0 size=N/A time=00:12:34.83 bitrate=N/A speed=  20x    frame=18308 fps=480 q=-0.0 size=N/A time=00:12:43.59 bitrate=N/A speed=  20x    frame=18506 fps=478 q=-0.0 size=N/A time=00:12:51.85 bitrate=N/A speed=19.9x    frame=18764 fps=478 q=-0.0 size=N/A time=00:13:02.61 bitrate=N/A speed=  20x    frame=18992 fps=478 q=-0.0 size=N/A time=00:13:12.12 bitrate=N/A speed=19.9x    frame=19250 fps=478 q=-0.0 size=N/A time=00:13:22.88 bitrate=N/A speed=19.9x    frame=19475 fps=478 q=-0.0 size=N/A time=00:13:32.26 bitrate=N/A speed=19.9x    frame=19682 fps=477 q=-0.0 size=N/A time=00:13:40.90 bitrate=N/A speed=19.9x    frame=19911 fps=476 q=-0.0 size=N/A time=00:13:50.45 bitrate=N/A speed=19.9x    frame=20136 fps=476 q=-0.0 size=N/A time=00:13:59.83 bitrate=N/A speed=19.9x    frame=20392 fps=476 q=-0.0 size=N/A time=00:14:10.51 bitrate=N/A speed=19.9x    frame=20650 fps=476 q=-0.0 size=N/A time=00:14:21.27 bitrate=N/A speed=19.9x    frame=20883 fps=476 q=-0.0 size=N/A time=00:14:30.99 bitrate=N/A speed=19.9x    frame=21107 fps=476 q=-0.0 size=N/A time=00:14:40.33 bitrate=N/A speed=19.8x    frame=21351 fps=476 q=-0.0 size=N/A time=00:14:50.51 bitrate=N/A speed=19.8x    frame=21559 fps=475 q=-0.0 size=N/A time=00:14:59.18 bitrate=N/A speed=19.8x    frame=21765 fps=474 q=-0.0 size=N/A time=00:15:07.78 bitrate=N/A speed=19.8x    frame=22003 fps=474 q=-0.0 size=N/A time=00:15:17.70 bitrate=N/A speed=19.8x    frame=22216 fps=473 q=-0.0 size=N/A time=00:15:26.59 bitrate=N/A speed=19.7x    frame=22467 fps=473 q=-0.0 size=N/A time=00:15:37.06 bitrate=N/A speed=19.7x    frame=22742 fps=474 q=-0.0 size=N/A time=00:15:48.53 bitrate=N/A speed=19.8x    frame=23009 fps=474 q=-0.0 size=N/A time=00:15:59.66 bitrate=N/A speed=19.8x    frame=23279 fps=475 q=-0.0 size=N/A time=00:16:10.92 bitrate=N/A speed=19.8x    frame=23501 fps=474 q=-0.0 size=N/A time=00:16:20.18 bitrate=N/A speed=19.8x    frame=23734 fps=474 q=-0.0 size=N/A time=00:16:29.90 bitrate=N/A speed=19.8x    frame=23955 fps=474 q=-0.0 size=N/A time=00:16:39.12 bitrate=N/A speed=19.8x    frame=24206 fps=474 q=-0.0 size=N/A time=00:16:49.59 bitrate=N/A speed=19.8x    frame=24420 fps=473 q=-0.0 size=N/A time=00:16:58.51 bitrate=N/A speed=19.7x    frame=24641 fps=473 q=-0.0 size=N/A time=00:17:07.73 bitrate=N/A speed=19.7x    frame=24898 fps=473 q=-0.0 size=N/A time=00:17:18.45 bitrate=N/A speed=19.7x    frame=25164 fps=474 q=-0.0 size=N/A time=00:17:29.54 bitrate=N/A speed=19.8x    frame=25406 fps=474 q=-0.0 size=N/A time=00:17:39.64 bitrate=N/A speed=19.8x    frame=25638 fps=473 q=-0.0 size=N/A time=00:17:49.31 bitrate=N/A speed=19.7x    frame=25881 fps=473 q=-0.0 size=N/A time=00:17:59.45 bitrate=N/A speed=19.7x    frame=26122 fps=473 q=-0.0 size=N/A time=00:18:09.50 bitrate=N/A speed=19.7x    frame=26336 fps=473 q=-0.0 size=N/A time=00:18:18.43 bitrate=N/A speed=19.7x    frame=26542 fps=472 q=-0.0 size=N/A time=00:18:27.02 bitrate=N/A speed=19.7x    frame=26756 fps=472 q=-0.0 size=N/A time=00:18:35.94 bitrate=N/A speed=19.7x    frame=26994 fps=471 q=-0.0 size=N/A time=00:18:45.87 bitrate=N/A speed=19.7x    frame=27248 fps=472 q=-0.0 size=N/A time=00:18:56.46 bitrate=N/A speed=19.7x    frame=27503 fps=472 q=-0.0 size=N/A time=00:19:07.10 bitrate=N/A speed=19.7x    frame=27744 fps=472 q=-0.0 size=N/A time=00:19:17.15 bitrate=N/A speed=19.7x    frame=28009 fps=472 q=-0.0 size=N/A time=00:19:28.25 bitrate=N/A speed=19.7x    frame=28285 fps=473 q=-0.0 size=N/A time=00:19:39.72 bitrate=N/A speed=19.7x    frame=28531 fps=473 q=-0.0 size=N/A time=00:19:49.98 bitrate=N/A speed=19.7x    frame=28808 fps=473 q=-0.0 size=N/A time=00:20:01.53 bitrate=N/A speed=19.7x    frame=29012 fps=473 q=-0.0 size=N/A time=00:20:10.04 bitrate=N/A speed=19.7x    frame=29258 fps=473 q=-0.0 size=N/A time=00:20:20.30 bitrate=N/A speed=19.7x    frame=29488 fps=472 q=-0.0 size=N/A time=00:20:29.89 bitrate=N/A speed=19.7x    frame=29739 fps=472 q=-0.0 size=N/A time=00:20:40.36 bitrate=N/A speed=19.7x    frame=29976 fps=472 q=-0.0 size=N/A time=00:20:50.24 bitrate=N/A speed=19.7x    frame=30228 fps=472 q=-0.0 size=N/A time=00:21:00.75 bitrate=N/A speed=19.7x    frame=30469 fps=472 q=-0.0 size=N/A time=00:21:10.81 bitrate=N/A speed=19.7x    frame=30692 fps=472 q=-0.0 size=N/A time=00:21:20.11 bitrate=N/A speed=19.7x    frame=30924 fps=472 q=-0.0 size=N/A time=00:21:29.78 bitrate=N/A speed=19.7x    frame=31168 fps=472 q=-0.0 size=N/A time=00:21:39.96 bitrate=N/A speed=19.7x    frame=31416 fps=472 q=-0.0 size=N/A time=00:21:50.30 bitrate=N/A speed=19.7x    frame=31648 fps=472 q=-0.0 size=N/A time=00:21:59.98 bitrate=N/A speed=19.7x    frame=31876 fps=472 q=-0.0 size=N/A time=00:22:09.49 bitrate=N/A speed=19.7x    frame=32083 fps=471 q=-0.0 size=N/A time=00:22:18.12 bitrate=N/A speed=19.6x    frame=32334 fps=471 q=-0.0 size=N/A time=00:22:28.59 bitrate=N/A speed=19.7x    frame=32563 fps=471 q=-0.0 size=N/A time=00:22:38.14 bitrate=N/A speed=19.6x    frame=32743 fps=470 q=-0.0 size=N/A time=00:22:45.65 bitrate=N/A speed=19.6x    frame=32982 fps=470 q=-0.0 size=N/A time=00:22:55.62 bitrate=N/A speed=19.6x    frame=33202 fps=470 q=-0.0 size=N/A time=00:23:04.80 bitrate=N/A speed=19.6x    frame=33391 fps=469 q=-0.0 size=N/A time=00:23:12.68 bitrate=N/A speed=19.6x    frame=33639 fps=469 q=-0.0 size=N/A time=00:23:23.02 bitrate=N/A speed=19.6x    [Parsed_psnr_10 @ 000001ed678dc200] PSNR y:49.821197 u:51.121706 v:50.006491 average:50.044376 min:43.283549 max:inf
[out#0/null @ 000001ed67f7ba00] video:14532KiB audio:264508KiB subtitle:0KiB other streams:0KiB global headers:0KiB muxing overhead: unknown
frame=33819 fps=469 q=-0.0 Lsize=N/A time=00:23:30.53 bitrate=N/A speed=19.6x    
